<?xml version="1.0" standalone="no"?>
<!DOCTYPE svg PUBLIC "-//W3C//DTD SVG 20010904//EN"
 "http://www.w3.org/TR/2001/REC-SVG-20010904/DTD/svg10.dtd">
<svg version="1.0" xmlns="http://www.w3.org/2000/svg"
 width="1024.000000pt" height="1024.000000pt" viewBox="0 0 1024.000000 1024.000000"
 preserveAspectRatio="xMidYMid meet">

<g transform="translate(0.000000,1024.000000) scale(0.100000,-0.100000)"
fill="#000000" stroke="none">
<path d="M5347 8129 c7 -9 10 -18 7 -22 -3 -3 -1 -15 6 -26 8 -17 8 -21 -4
-21 -7 0 -16 6 -19 14 -3 8 -20 21 -37 30 -29 14 -31 14 -19 0 11 -14 10 -16
-6 -14 -33 4 -47 1 -41 -9 3 -5 -1 -12 -9 -15 -9 -3 -18 1 -21 9 -4 8 -12 15
-19 15 -17 0 -27 -28 -13 -36 6 -4 8 -3 4 4 -3 6 -2 13 4 17 5 3 10 -3 10 -13
0 -15 5 -19 20 -15 12 3 20 0 20 -6 0 -7 -4 -9 -10 -6 -14 9 -12 -8 3 -25 10
-12 9 -12 -4 -2 -9 7 -30 14 -47 16 -18 2 -38 9 -46 15 -21 18 -27 -9 -8 -34
9 -11 2 -6 -15 10 -17 17 -30 35 -29 40 0 6 -11 11 -26 13 -22 3 -28 -1 -28
-16 0 -16 5 -19 23 -15 21 5 21 5 2 -10 -15 -12 -24 -12 -45 -4 -14 7 -27 14
-30 18 -11 12 -40 18 -40 7 0 -7 -7 -5 -17 5 -16 13 -20 13 -32 0 -9 -9 -22
-12 -39 -8 -22 5 -24 4 -13 -9 12 -14 16 -14 42 0 26 13 29 13 29 -1 0 -9 -4
-14 -9 -11 -15 9 -42 -5 -34 -18 4 -6 -1 -5 -10 2 -19 16 -37 8 -37 -16 -1
-16 -2 -16 -14 1 -17 22 -30 22 -22 1 6 -14 4 -15 -9 -4 -14 12 -15 10 -11
-12 3 -16 0 -25 -9 -25 -8 0 -13 5 -12 11 1 6 -11 10 -27 9 -35 -3 -45 -11
-27 -22 20 -13 -1 -20 -27 -10 -13 5 -21 13 -17 18 3 5 0 13 -6 17 -8 4 -9 3
-5 -4 5 -8 -2 -10 -24 -6 -20 4 -30 3 -30 -5 0 -7 -4 -10 -9 -6 -5 3 -13 0
-17 -6 -4 -8 -9 -7 -15 2 -8 11 -11 11 -20 -4 -5 -9 -17 -23 -26 -30 -8 -6
-28 -24 -43 -39 -33 -33 -40 -35 -40 -8 0 11 -5 20 -11 20 -6 0 -9 -6 -6 -14
3 -8 1 -17 -6 -19 -9 -4 -9 -7 0 -17 9 -9 9 -19 2 -32 -9 -17 -8 -18 10 -9 12
7 18 17 15 26 -7 17 31 22 41 5 4 -6 -1 -7 -12 -4 -17 5 -16 4 1 -10 10 -8 23
-17 29 -19 18 -6 -3 -27 -26 -27 -16 0 -18 3 -9 9 11 7 10 10 -3 15 -22 8 -41
-4 -24 -15 10 -6 6 -8 -11 -7 -14 2 -28 7 -31 12 -4 5 -12 5 -19 1 -9 -6 -9
-9 1 -16 11 -7 10 -9 -3 -9 -21 0 -22 4 -8 31 8 14 7 19 -3 19 -7 0 -22 8 -33
18 -24 23 -44 18 -37 -9 5 -16 8 -17 21 -7 14 12 14 10 3 -11 -11 -20 -11 -25
3 -33 9 -5 14 -13 11 -19 -4 -5 -1 -9 6 -9 10 0 10 -3 1 -12 -10 -10 -15 -10
-21 1 -7 11 -11 10 -22 -7 -7 -11 -19 -18 -27 -14 -8 3 -20 -1 -26 -9 -6 -8
-17 -14 -25 -14 -8 0 -16 -6 -19 -14 -3 -8 -1 -11 4 -8 15 9 9 -35 -8 -71 -16
-31 -16 -31 3 -22 10 6 19 7 19 3 0 -5 -16 -17 -35 -27 -19 -11 -35 -25 -35
-33 0 -15 36 -18 45 -3 3 6 11 10 16 10 6 0 3 -7 -5 -16 -22 -21 -21 -45 2
-37 16 6 16 6 -1 -11 -20 -20 -27 -18 -31 11 -2 10 -7 18 -12 17 -5 -1 -14 6
-20 14 -15 21 -53 6 -60 -24 -3 -13 -10 -24 -16 -24 -5 0 -6 -5 -3 -10 5 -8
11 -7 21 1 12 10 12 7 -1 -17 -10 -20 -11 -31 -3 -41 7 -9 7 -13 -1 -13 -11 0
-15 13 -11 39 1 12 -1 13 -13 3 -8 -7 -21 -11 -28 -9 -8 2 -11 2 -7 0 4 -3 5
-18 1 -34 -5 -29 10 -42 20 -16 3 6 6 1 7 -13 0 -23 2 -23 11 -7 10 18 11 18
25 0 12 -16 13 -14 15 22 0 22 4 51 9 65 6 21 8 22 15 8 4 -9 3 -22 -1 -29
-12 -19 -14 -75 -2 -58 7 11 11 11 15 2 2 -7 13 -13 24 -13 11 0 19 6 18 13
-3 16 32 87 43 87 4 0 8 10 8 23 0 17 2 19 9 8 6 -9 6 -22 0 -33 -12 -23 16
-26 28 -3 5 8 23 19 41 24 30 9 32 8 31 -17 0 -23 -2 -24 -8 -8 -6 15 -10 16
-15 7 -12 -19 8 -33 38 -25 27 6 36 24 13 24 -8 0 -14 6 -14 13 0 6 -3 22 -7
34 -5 17 -1 26 19 39 14 9 25 23 25 32 0 8 3 12 7 9 3 -4 13 2 20 13 8 11 19
17 25 14 6 -4 24 -7 39 -6 16 0 29 -3 29 -8 0 -20 37 -30 64 -17 32 15 34 27
4 20 l-23 -5 23 17 c13 9 21 23 18 31 -3 8 0 13 7 11 7 -1 11 6 9 16 -2 9 2
17 8 17 6 0 8 -4 5 -10 -3 -5 -2 -10 4 -10 5 0 8 -8 6 -17 -1 -10 -8 -17 -13
-16 -6 2 -9 -4 -5 -13 5 -13 8 -13 24 2 11 10 19 12 19 6 0 -7 9 -12 20 -12
11 0 20 -4 20 -10 0 -5 6 -10 14 -10 8 0 16 -10 18 -22 2 -13 13 -27 26 -33
12 -5 22 -13 22 -16 0 -3 10 -4 23 -2 20 4 22 1 21 -42 -1 -26 -7 -51 -14 -55
-16 -10 -3 -33 13 -23 7 3 4 -3 -7 -15 -10 -12 -16 -28 -12 -37 3 -10 2 -13
-5 -10 -5 4 -16 1 -24 -5 -12 -10 -15 -9 -15 4 0 19 -16 21 -23 4 -3 -7 -6 -3
-6 10 -1 12 4 22 9 22 6 0 10 4 10 8 0 7 -12 8 -51 3 -4 -1 -12 -15 -20 -32
-11 -27 -14 -29 -24 -16 -11 15 -13 15 -30 -1 -17 -15 -18 -15 -6 0 10 14 9
19 -13 33 -14 9 -33 14 -43 11 -10 -3 -25 -1 -33 4 -10 6 -11 10 -2 10 6 0 12
4 12 9 0 15 -34 7 -51 -11 -9 -10 -19 -18 -23 -18 -12 0 -6 28 9 40 8 7 15 18
14 24 0 7 -2 6 -6 -1 -2 -7 -9 -13 -14 -13 -4 0 -6 7 -3 15 4 10 0 15 -15 15
-12 0 -21 4 -21 10 0 5 18 3 41 -6 39 -16 41 -16 60 5 20 21 20 21 -1 21 -11
0 -36 7 -55 14 -19 8 -35 11 -35 5 0 -5 5 -9 10 -9 6 0 10 -4 10 -10 0 -6 -9
-6 -26 0 -30 12 -74 13 -74 2 0 -8 37 -42 46 -42 3 0 3 4 -1 9 -3 5 -1 12 5
16 5 3 11 -4 14 -17 13 -65 15 -88 6 -88 -21 0 -25 -2 -33 -16 -5 -8 -20 -19
-33 -24 -13 -5 -24 -17 -24 -27 1 -16 2 -16 13 -3 15 19 67 53 67 44 0 -3 -13
-22 -30 -41 -35 -39 -40 -59 -11 -43 11 5 23 10 28 10 12 0 -30 -27 -54 -34
-19 -6 -22 -4 -16 10 5 14 3 16 -13 10 -45 -19 -54 -19 -54 2 0 16 -5 19 -22
15 -18 -4 -20 -2 -9 5 12 9 10 12 -12 17 -21 6 -26 12 -22 25 4 14 -1 19 -23
22 -29 4 -57 -13 -44 -27 4 -4 0 -6 -8 -3 -8 3 -14 12 -12 22 4 23 -3 20 -23
-10 -9 -15 -12 -23 -6 -20 15 10 14 0 -4 -35 -9 -16 -20 -27 -25 -24 -21 13
-50 -34 -50 -80 0 -29 -4 -45 -12 -45 -7 0 -5 -5 6 -11 14 -9 15 -13 6 -19 -7
-4 -10 -15 -7 -25 4 -9 12 -13 18 -9 6 3 15 0 20 -7 6 -9 9 -10 9 -2 0 6 -4
15 -10 18 -19 11 -10 20 20 20 18 1 30 -4 30 -12 0 -7 3 -13 8 -13 10 0 39 20
28 20 -5 0 -3 6 3 13 6 8 8 17 4 20 -3 4 8 7 26 7 28 0 32 3 30 23 -2 25 26
94 33 81 5 -10 3 -33 -6 -81 -5 -26 -3 -33 9 -33 9 0 14 4 11 9 -3 5 2 12 11
15 13 5 14 9 5 15 -7 4 -10 15 -6 24 7 19 24 23 24 6 0 -5 4 -8 10 -4 5 3 7
13 4 23 -4 12 -3 13 3 4 6 -8 17 -10 29 -5 17 6 17 5 5 -10 -7 -9 -10 -17 -5
-18 5 0 -4 -7 -21 -14 -18 -9 -23 -14 -13 -15 10 0 22 -9 28 -20 9 -17 8 -20
-8 -20 -10 0 -24 6 -32 13 -12 10 -12 9 0 -6 12 -16 11 -17 -20 -12 -29 5 -32
4 -20 -9 7 -9 17 -13 22 -10 6 4 4 -4 -3 -17 -7 -13 -12 -25 -11 -26 7 -10 0
-23 -12 -23 -19 0 -29 -30 -15 -46 9 -11 6 -14 -16 -14 l-28 0 27 -27 c25 -25
26 -28 9 -35 -14 -6 -13 -7 7 -5 17 1 26 9 28 25 2 12 8 22 13 22 5 0 8 -3 7
-7 -1 -5 3 -18 10 -30 11 -20 9 -23 -25 -39 -20 -10 -31 -20 -24 -22 9 -3 9
-7 0 -18 -20 -24 -2 -28 22 -5 13 12 26 21 31 21 4 0 10 11 14 25 3 14 12 25
20 25 8 0 14 5 14 12 0 9 3 9 11 1 14 -14 4 -47 -11 -38 -5 3 -11 1 -11 -4 -1
-6 -2 -16 -3 -21 0 -6 -14 -19 -31 -30 -16 -11 -30 -25 -30 -32 -1 -7 -5 -12
-10 -11 -6 0 -16 -5 -22 -12 -10 -11 -8 -13 10 -12 12 0 25 6 29 12 5 6 8 2 8
-9 0 -15 5 -17 30 -13 26 6 29 4 21 -11 -15 -27 -41 -89 -41 -96 0 -3 7 -6 16
-6 11 0 14 -5 10 -16 -4 -9 -1 -23 5 -30 9 -11 7 -14 -10 -14 -12 0 -19 4 -16
10 4 6 -1 7 -11 3 -11 -4 -13 -8 -6 -11 13 -4 6 -22 -9 -22 -5 0 -9 12 -9 26
0 16 -5 24 -12 21 -7 -2 -13 -12 -13 -22 0 -26 -22 -30 -30 -5 -3 11 -11 18
-16 14 -5 -3 -7 -10 -4 -15 4 -5 -3 -13 -15 -17 -20 -7 -20 -9 -6 -21 11 -9
16 -10 16 -2 0 6 5 11 11 11 5 0 8 -4 4 -9 -3 -6 4 -15 15 -21 11 -6 20 -18
20 -26 0 -8 4 -13 9 -10 5 3 11 -1 15 -9 9 -23 -10 -26 -35 -5 -13 11 -20 19
-15 20 12 0 -14 30 -26 30 -6 0 -8 -13 -4 -32 5 -29 4 -31 -8 -15 -7 9 -17 17
-22 17 -19 1 -88 39 -71 40 23 0 22 25 -2 49 -13 13 -16 22 -8 30 10 10 5 13
-39 26 -8 3 -11 -21 -9 -78 2 -79 2 -80 -10 -42 -15 46 -20 26 -6 -22 5 -17 6
-34 3 -38 -4 -3 -5 -22 -3 -42 4 -53 -21 -37 -35 23 -6 27 -15 63 -19 79 -7
30 -7 30 -16 6 -12 -29 -2 -86 17 -102 8 -7 12 -19 9 -28 -3 -10 3 -26 13 -37
11 -11 22 -26 25 -34 4 -12 6 -11 6 2 1 9 -3 20 -9 23 -5 3 -10 10 -10 15 0
10 62 -11 72 -25 11 -15 10 -27 -2 -20 -6 3 -7 -1 -4 -9 3 -9 1 -16 -5 -16 -6
0 -11 -5 -11 -11 0 -6 8 -8 19 -4 25 7 37 -11 13 -20 -14 -5 -10 -9 18 -22 51
-23 72 -23 93 1 15 17 18 18 13 3 -4 -13 1 -19 24 -24 31 -6 39 -18 18 -27 -7
-2 -3 -4 9 -2 13 1 33 12 46 24 28 26 37 28 37 6 0 -9 -9 -18 -19 -21 -11 -3
-22 -12 -26 -20 -5 -13 2 -15 39 -10 26 4 48 2 51 -3 4 -6 26 -8 50 -6 25 3
47 0 50 -5 8 -11 25 -12 25 -1 0 5 -18 15 -41 22 -22 8 -42 17 -45 22 -7 10
95 2 130 -12 15 -5 43 -10 63 -10 31 0 34 2 23 15 -7 9 -20 15 -29 13 -9 -1
-22 1 -28 5 -7 5 -13 5 -13 1 0 -3 -7 -1 -15 6 -12 10 -15 10 -15 -1 -1 -10
-4 -9 -14 3 -7 10 -16 15 -20 11 -3 -4 -13 2 -20 13 -19 26 -1 35 47 25 20 -5
38 -7 41 -4 2 2 7 -5 11 -16 6 -19 41 -38 51 -28 8 8 13 48 8 62 -3 8 -29 22
-57 31 -67 22 -72 25 -56 35 11 7 10 9 -3 9 -10 0 -18 -6 -18 -13 0 -9 -20
-13 -67 -13 -48 -1 -54 0 -20 3 38 3 47 7 43 19 -3 9 -1 12 4 9 6 -3 20 1 32
9 12 9 18 16 13 16 -6 0 -3 5 5 10 11 8 7 9 -15 5 l-30 -6 27 16 c15 8 42 17
60 19 18 2 36 4 40 5 4 0 6 14 6 31 -1 29 -18 33 -18 4 0 -8 -5 -14 -11 -14
-7 0 -9 11 -5 28 3 15 3 21 0 15 -11 -25 -23 -13 -14 13 13 34 13 45 -2 42 -9
-2 -13 10 -12 37 3 97 8 134 16 128 6 -3 8 -14 5 -24 -8 -28 12 -23 25 7 9 20
9 27 -1 34 -11 6 -11 9 0 13 11 4 9 9 -6 21 -20 17 -20 17 3 11 16 -5 22 -2
22 9 0 20 -17 30 -23 14 -3 -7 -6 -2 -6 11 -1 20 1 22 14 11 9 -7 18 -11 20
-8 10 10 22 98 14 98 -5 0 -9 5 -9 11 0 8 4 8 14 0 8 -7 12 -21 8 -33 -3 -14
-1 -19 6 -14 7 4 12 14 12 22 0 9 6 22 14 29 7 8 16 36 20 64 9 70 29 123 71
185 19 29 35 59 35 66 0 7 7 10 15 6 8 -3 30 9 51 29 36 34 36 35 20 60 -18
27 -14 45 10 45 8 0 14 10 14 26 0 21 -4 25 -17 20 -10 -4 -14 -4 -10 0 4 4 2
13 -5 21 -8 10 -8 17 0 25 9 9 12 8 12 -5 0 -9 6 -17 13 -17 20 0 36 21 30 38
-5 11 -3 13 6 7 8 -4 17 -2 22 6 15 24 0 -60 -16 -92 -9 -16 -13 -35 -9 -41 5
-7 2 -9 -8 -5 -11 4 -17 -2 -20 -18 -7 -33 5 -50 22 -30 7 8 21 15 32 15 11 0
44 12 74 26 30 14 69 27 87 29 94 9 138 18 125 27 -9 7 -5 8 12 3 48 -12 109
-12 114 1 5 14 -2 24 -18 24 -6 0 -4 -5 4 -10 13 -8 12 -10 -4 -10 -13 0 -17
5 -13 20 3 10 0 21 -7 24 -7 3 -6 8 4 15 19 14 53 14 45 1 -4 -6 -12 -7 -18
-3 -7 4 -6 -1 2 -10 8 -10 16 -15 19 -12 3 3 11 0 18 -6 11 -9 9 -15 -9 -30
l-22 -19 28 10 c19 7 35 7 47 0 48 -25 97 1 64 35 -17 17 -54 20 -54 5 0 -5
-8 -10 -17 -10 -15 0 -16 2 -3 10 14 9 11 12 -19 14 -8 1 -16 6 -18 11 -2 6
15 9 43 6 35 -2 45 0 39 9 -6 9 -3 9 13 1 12 -7 23 -7 26 -2 4 5 1 11 -5 13
-6 2 0 9 14 15 22 10 24 10 20 -8 -3 -11 2 -27 10 -37 11 -12 13 -22 7 -32
-15 -24 -12 -33 10 -27 10 3 25 -2 32 -10 8 -9 22 -13 40 -9 19 4 30 1 36 -10
5 -9 12 -15 16 -14 13 4 95 -20 101 -30 3 -5 12 -7 19 -4 8 3 17 0 22 -7 5 -8
3 -10 -6 -4 -10 6 -11 4 -6 -11 5 -10 14 -39 21 -64 7 -25 18 -58 25 -75 7
-16 14 -38 15 -47 2 -22 46 -59 63 -53 9 3 10 -3 6 -21 -6 -23 -4 -25 14 -20
12 4 23 2 28 -5 5 -8 2 -10 -8 -7 -11 5 -14 0 -12 -20 2 -17 -5 -32 -19 -44
-18 -16 -19 -21 -7 -29 13 -8 13 -10 0 -18 -8 -5 -18 -8 -22 -5 -4 3 -5 -9 -2
-25 5 -23 2 -32 -9 -37 -9 -3 -18 -12 -21 -19 -3 -10 0 -12 12 -8 14 6 15 4 5
-9 -7 -8 -10 -18 -6 -22 4 -3 -2 -13 -13 -22 -10 -8 -13 -12 -5 -8 10 5 12 3
7 -5 -5 -7 -14 -10 -21 -7 -13 4 -25 -22 -25 -54 0 -10 7 -7 21 10 l20 25 -15
-32 c-9 -18 -16 -38 -16 -46 0 -17 -42 -47 -65 -47 -9 0 -13 -5 -10 -11 4 -6
13 -8 20 -5 12 4 35 -11 35 -25 0 -4 -9 -9 -19 -12 -14 -3 -18 0 -15 12 3 9
-1 6 -7 -6 -7 -13 -16 -23 -21 -23 -12 0 -10 14 5 30 6 8 2 6 -10 -4 -23 -19
-23 -19 -29 12 -11 55 -22 35 -18 -33 2 -36 5 -69 8 -74 3 -4 -1 -17 -9 -27
-15 -19 -15 -19 -8 0 4 13 3 17 -4 13 -6 -4 -10 -23 -9 -42 2 -19 -2 -36 -8
-39 -7 -3 -7 -5 2 -5 6 -1 12 -11 12 -23 0 -17 -3 -19 -9 -9 -6 9 -11 10 -15
2 -4 -6 -4 -15 -1 -21 3 -5 1 -10 -5 -10 -6 0 -8 -4 -5 -10 8 -13 -8 -13 -21
0 -7 7 -19 -4 -38 -32 -15 -24 -22 -38 -15 -31 9 9 15 9 25 -2 19 -18 18 -28
-6 -72 -18 -34 -26 -32 -21 6 2 7 -3 11 -9 9 -13 -4 -40 -74 -32 -83 3 -2 -3
-14 -13 -25 -11 -12 -20 -28 -21 -37 -2 -8 -12 -22 -23 -30 -12 -8 -21 -23
-21 -34 0 -20 15 -26 25 -9 12 19 26 11 16 -9 -6 -10 -7 -21 -3 -25 3 -4 -1
-4 -10 -1 -11 4 -18 0 -22 -12 -3 -10 -17 -31 -31 -47 -28 -32 -26 -29 -29
-71 -1 -16 -5 -36 -9 -42 -5 -7 -5 -13 0 -13 13 0 32 -49 22 -56 -5 -3 -9 1
-9 9 0 20 -31 31 -42 15 -14 -23 -9 -33 7 -12 12 16 14 17 15 2 0 -9 -3 -24
-6 -33 -5 -13 -9 -14 -15 -4 -9 16 -17 10 -22 -17 -7 -37 -31 -75 -44 -70 -10
4 -10 1 -1 -13 6 -11 20 -18 30 -16 25 5 23 -11 -2 -18 -28 -7 -25 -34 6 -41
14 -4 24 -12 21 -19 -17 -46 -18 -57 -3 -57 33 0 62 23 78 61 9 22 12 37 7 34
-5 -4 -9 1 -9 10 0 9 5 13 11 9 6 -4 10 1 8 12 -5 30 11 94 23 94 6 0 5 6 -3
16 -12 15 -11 16 7 10 23 -7 27 -1 44 57 7 21 5 27 -6 27 -8 0 -14 5 -14 10 0
6 5 10 10 10 6 0 10 7 8 16 -2 10 3 19 11 22 9 3 11 0 7 -9 -4 -8 0 -5 8 5 9
11 16 26 16 33 0 7 7 10 18 6 9 -3 14 -3 10 2 -10 10 10 47 22 40 4 -3 12 9
16 27 3 18 15 39 25 46 11 7 19 22 19 32 0 10 5 22 11 25 7 5 9 -8 4 -41 l-6
-49 17 30 c9 16 19 49 20 74 2 24 9 50 16 58 8 10 8 17 1 21 -13 9 -9 52 6 62
7 4 12 10 11 14 -1 4 1 12 3 19 3 6 6 0 6 -15 1 -29 19 -36 39 -16 7 7 8 17 2
27 -5 11 -1 31 12 60 11 23 17 50 13 59 -5 14 -4 15 6 5 7 -7 17 -13 21 -13
13 0 27 44 16 51 -5 3 0 16 10 29 l19 23 1 -31 c0 -17 -3 -34 -8 -37 -11 -7
-1 -42 18 -57 14 -11 15 -9 9 21 -4 19 -4 31 0 28 4 -4 12 5 18 21 8 17 21 28
36 30 13 1 33 3 43 5 10 1 21 -4 24 -12 3 -9 0 -11 -9 -6 -8 5 -11 4 -6 0 4
-5 18 -9 32 -10 22 -1 23 1 9 16 -10 11 -12 19 -5 24 15 8 14 42 -1 51 -7 4
-8 3 -4 -4 5 -8 0 -12 -13 -12 -12 0 -21 -5 -21 -11 0 -5 -4 -8 -9 -4 -5 3
-13 0 -17 -6 -4 -8 -9 -7 -15 2 -12 20 -12 22 13 49 17 18 18 22 5 17 -14 -5
-17 -1 -17 24 0 18 -4 28 -10 24 -13 -8 -5 42 9 59 8 9 7 13 -4 13 -8 0 -15
-4 -15 -9 0 -4 -8 -8 -17 -7 -11 0 -13 3 -5 6 18 7 15 33 -5 34 -12 0 -13 2
-5 6 10 4 10 8 1 19 -9 11 -9 14 0 14 7 0 9 4 6 10 -3 5 0 7 8 4 9 -3 12 -14
9 -30 -2 -14 0 -24 8 -24 6 0 9 8 5 19 -3 11 1 24 11 32 15 12 16 11 9 -11 -7
-23 -6 -24 9 -11 9 8 15 20 12 28 -8 20 8 15 22 -7 10 -17 10 -20 -3 -20 -8 0
-15 -6 -15 -14 0 -29 22 -27 50 6 17 19 30 27 30 19 0 -11 4 -9 15 5 8 10 14
15 13 9 -4 -15 31 -60 39 -51 5 5 2 11 -5 13 -7 3 -17 16 -23 30 -11 29 14 87
34 78 7 -4 3 1 -8 10 -16 13 -17 17 -6 24 8 5 11 16 7 26 -3 10 -1 24 5 31 12
14 3 38 -11 29 -5 -3 -9 3 -9 12 0 10 -2 29 -3 42 -2 19 3 26 22 32 16 4 19 7
8 8 -10 1 -18 6 -18 12 0 6 6 9 13 6 11 -4 13 6 11 43 -3 56 -10 73 -27 63 -7
-4 -6 1 2 11 11 13 16 14 24 4 6 -9 7 -7 2 7 -10 27 -7 79 5 83 6 2 10 11 10
20 0 12 7 9 24 -13 23 -29 23 -29 30 -7 4 12 11 20 16 17 4 -3 13 2 20 10 11
13 10 14 -2 10 -12 -5 -14 0 -10 20 3 16 10 24 17 21 8 -3 16 6 19 20 4 14 11
22 16 19 6 -3 10 0 10 8 0 20 25 28 39 14 8 -8 11 -8 11 1 0 9 8 9 29 -3 23
-11 31 -12 34 -2 6 12 11 -16 8 -43 -1 -9 6 -5 19 10 22 27 20 67 -5 86 -8 6
-12 14 -9 17 11 11 -18 48 -59 73 -54 34 -98 75 -91 86 5 8 -1 10 -36 12 -8 1
-20 12 -27 26 -6 14 -32 47 -56 73 -25 26 -48 54 -51 62 -3 8 -12 15 -19 15
-21 0 -49 36 -51 64 0 14 -6 28 -13 30 -8 3 -10 -1 -6 -11 4 -11 2 -14 -5 -9
-7 4 -12 14 -12 22 0 8 -4 13 -9 9 -5 -3 -11 5 -13 17 -2 13 -9 22 -16 20 -6
-1 -12 2 -12 8 0 20 -3 25 -21 38 -11 7 -19 22 -19 33 0 13 -7 19 -22 19 -19
0 -20 2 -8 10 13 9 8 14 -11 12 -4 -1 -5 8 -2 18 5 19 2 22 -29 24 -7 1 -21
10 -30 21 -10 12 -17 15 -18 8 0 -27 -19 -11 -26 21 -4 24 -10 33 -20 29 -8
-3 -14 1 -14 8 0 10 -3 10 -11 2 -16 -16 -69 4 -70 25 0 12 -3 10 -9 -5 -7
-16 -14 -21 -27 -16 -10 4 -12 8 -5 11 7 2 12 11 12 19 0 10 -6 13 -16 9 -14
-5 -15 -4 -5 8 9 11 9 16 0 21 -6 4 -15 2 -19 -5 -4 -7 -15 -10 -24 -7 -22 9
-20 -9 2 -23 14 -8 12 -9 -10 -4 -19 4 -29 1 -36 -12 -9 -15 -13 -16 -26 -5
-9 7 -16 10 -16 5 0 -4 -9 2 -20 14 -21 22 -47 31 -35 12 3 -5 1 -10 -4 -10
-6 0 -11 8 -11 17 0 9 -3 13 -7 10 -3 -4 -13 -1 -22 6 -14 10 -14 10 -4 -4z
m-171 -129 c0 -12 -4 -16 -9 -11 -5 5 -6 14 -3 20 10 15 12 14 12 -9z m-336
-5 c11 -13 10 -14 -4 -9 -9 3 -16 10 -16 15 0 13 6 11 20 -6z m180 -7 c0 -19
-2 -20 -10 -8 -13 19 -13 30 0 30 6 0 10 -10 10 -22z m73 -8 c3 -13 0 -20 -10
-20 -8 0 -11 5 -7 11 3 6 0 15 -7 20 -11 7 -11 9 2 9 9 0 19 -9 22 -20z m692
0 c3 -5 -1 -10 -10 -10 -9 0 -13 5 -10 10 3 6 8 10 10 10 2 0 7 -4 10 -10z
m-985 -20 c0 -5 -2 -10 -4 -10 -3 0 -8 5 -11 10 -3 6 -1 10 4 10 6 0 11 -4 11
-10z m-137 -43 c3 -8 -1 -14 -9 -14 -15 0 -18 9 -7 20 9 9 10 9 16 -6z m-163
-32 c9 0 54 -45 46 -45 -4 0 -19 9 -34 20 -14 11 -28 17 -31 13 -8 -11 -31
-15 -31 -5 0 15 23 31 34 24 6 -4 13 -7 16 -7z m-16 -60 c-7 -16 -24 -21 -24
-6 0 8 7 13 27 20 1 1 0 -6 -3 -14z m136 -5 c0 -5 -2 -10 -4 -10 -3 0 -8 5
-11 10 -3 6 -1 10 4 10 6 0 11 -4 11 -10z m280 -82 c0 -12 -6 -9 -26 13 -19
22 -19 22 4 8 12 -8 22 -17 22 -21z m53 -25 c2 -5 7 -21 11 -37 6 -23 4 -27
-8 -23 -17 7 -22 -8 -6 -18 5 -3 7 -21 5 -40 -6 -42 -3 -43 27 -10 42 44 49
55 43 64 -3 5 0 13 6 17 8 4 9 3 5 -5 -6 -9 0 -10 20 -5 22 6 26 4 21 -9 -4
-11 1 -18 16 -23 12 -5 25 -7 30 -6 4 1 7 -2 7 -8 0 -9 -28 -15 -58 -11 -13 2
-16 -5 -26 -54 -5 -22 -4 -26 4 -15 8 12 10 10 10 -10 0 -29 -17 -50 -39 -50
-14 0 -14 1 -1 10 11 7 7 10 -17 10 -17 0 -35 -4 -38 -10 -10 -17 -45 -11 -45
7 0 13 3 14 12 5 17 -17 25 -15 31 9 4 16 2 19 -10 15 -11 -5 -14 -2 -9 11 6
15 5 16 -5 6 -15 -15 -59 -17 -59 -3 0 6 -7 10 -15 10 -9 0 -12 6 -9 15 4 9 0
15 -7 15 -11 0 -11 2 1 9 8 6 17 8 21 5 4 -2 7 5 6 16 -1 11 -6 20 -12 20 -5
0 -1 8 10 16 20 16 20 16 -2 10 -18 -6 -20 -3 -16 13 3 13 12 18 24 16 11 -2
26 6 36 20 19 25 29 30 36 18z m227 3 c0 -2 -7 -7 -16 -10 -8 -3 -12 -2 -9 4
6 10 25 14 25 6z m-340 -21 c-10 -12 -10 -15 0 -15 8 0 11 -2 8 -5 -3 -3 -13
-3 -22 1 -23 9 -20 34 5 34 18 0 19 -2 9 -15z m373 -5 c-3 -12 -8 -19 -11 -16
-5 6 5 36 12 36 2 0 2 -9 -1 -20z m-13 -43 c0 -2 -7 -4 -15 -4 -8 0 -15 9 -15
19 0 17 2 18 15 4 8 -8 15 -16 15 -19z m-415 3 c3 -6 -1 -7 -9 -4 -9 3 -16 2
-16 -4 0 -6 6 -12 13 -15 6 -2 9 -7 6 -11 -6 -6 -49 26 -49 38 0 10 48 7 55
-4z m-297 -25 c-3 -3 -9 2 -12 12 -6 14 -5 15 5 6 7 -7 10 -15 7 -18z m32 15
c0 -5 -4 -10 -10 -10 -5 0 -10 5 -10 10 0 6 5 10 10 10 6 0 10 -4 10 -10z
m130 -10 c0 -5 -4 -10 -10 -10 -5 0 -10 5 -10 10 0 6 5 10 10 10 6 0 10 -4 10
-10z m546 -27 c-10 -10 -19 5 -10 18 6 11 8 11 12 0 2 -7 1 -15 -2 -18z m-666
7 c0 -5 -4 -10 -10 -10 -5 0 -10 5 -10 10 0 6 5 10 10 10 6 0 10 -4 10 -10z
m-210 -30 c0 -19 -11 -26 -23 -14 -8 8 3 34 14 34 5 0 9 -9 9 -20z m830 10 c0
-5 -5 -10 -11 -10 -5 0 -7 5 -4 10 3 6 8 10 11 10 2 0 4 -4 4 -10z m-60 -110
c0 -5 -5 -10 -11 -10 -5 0 -7 5 -4 10 3 6 8 10 11 10 2 0 4 -4 4 -10z m480
-63 c9 -3 6 -6 -9 -6 -13 -1 -30 7 -37 17 -21 28 -16 37 9 15 12 -11 29 -23
37 -26z m-73 18 c0 -8 -4 -12 -9 -9 -4 3 -8 9 -8 15 0 5 4 9 8 9 5 0 9 -7 9
-15z m-410 -32 c-4 -3 -1 -13 6 -21 10 -13 9 -14 -10 -3 -27 14 -30 31 -6 31
9 0 13 -3 10 -7z m1130 -45 c-3 -8 -6 -5 -6 6 -1 11 2 17 5 13 3 -3 4 -12 1
-19z m-650 -14 c-3 -3 -12 -4 -19 -1 -8 3 -5 6 6 6 11 1 17 -2 13 -5z m-1043
-32 c2 -4 -4 -8 -15 -8 -10 0 -19 4 -19 8 0 4 6 8 14 8 8 0 17 -4 20 -8z
m-375 -19 c-3 -21 2 -33 16 -33 18 0 19 -12 3 -28 -9 -9 -14 -7 -24 5 -10 15
-14 15 -28 4 -23 -19 -20 1 5 33 21 26 30 32 28 19z m266 -73 c3 -5 1 -10 -4
-10 -6 0 -11 5 -11 10 0 6 2 10 4 10 3 0 8 -4 11 -10z m30 1 c3 -5 1 -12 -5
-16 -5 -3 -10 1 -10 9 0 18 6 21 15 7z m1722 -13 c-3 -8 -6 -5 -6 6 -1 11 2
17 5 13 3 -3 4 -12 1 -19z m-1787 -24 c0 -9 -9 -18 -21 -21 -12 -4 -18 -11
-15 -20 3 -8 1 -11 -4 -8 -15 10 -12 35 5 35 8 0 15 7 15 15 0 8 5 15 10 15 6
0 10 -7 10 -16z m34 -17 c-10 -26 -22 -20 -16 9 3 15 8 22 14 16 5 -5 6 -16 2
-25z m-331 4 c-3 -11 -11 -22 -19 -25 -11 -4 -11 0 -2 19 13 30 28 33 21 6z
m52 -10 c3 -5 1 -12 -5 -16 -5 -3 -10 1 -10 9 0 18 6 21 15 7z m345 -41 c0 -5
-4 -10 -10 -10 -5 0 -10 5 -10 10 0 6 5 10 10 10 6 0 10 -4 10 -10z m-140
-130 c0 -5 -7 -10 -15 -10 -8 0 -15 -3 -15 -7 0 -14 -61 -43 -88 -42 -26 0
-26 1 -4 9 12 5 22 15 22 22 0 9 -3 9 -10 -2 -8 -13 -10 -12 -10 3 0 14 5 17
19 12 11 -3 22 -1 26 5 4 6 14 8 23 6 10 -3 24 -1 32 4 19 12 20 12 20 0z
m-20 -44 c0 -3 -4 -8 -10 -11 -5 -3 -10 -1 -10 4 0 6 5 11 10 11 6 0 10 -2 10
-4z m14 -122 c3 -8 2 -12 -4 -9 -6 3 -10 10 -10 16 0 14 7 11 14 -7z m1556 12
c0 -3 -4 -8 -10 -11 -5 -3 -10 -1 -10 4 0 6 5 11 10 11 6 0 10 -2 10 -4z m195
-16 c3 -5 1 -10 -4 -10 -6 0 -11 5 -11 10 0 6 2 10 4 10 3 0 8 -4 11 -10z
m-1865 -10 c0 -5 -5 -10 -11 -10 -5 0 -7 5 -4 10 3 6 8 10 11 10 2 0 4 -4 4
-10z m1661 -27 c-12 -20 -14 -14 -5 12 4 9 9 14 11 11 3 -2 0 -13 -6 -23z
m-1571 10 c0 -5 -4 -15 -10 -23 -11 -18 -25 -7 -17 15 6 15 27 21 27 8z m-45
-33 c-3 -5 -11 -10 -16 -10 -6 0 -7 5 -4 10 3 6 11 10 16 10 6 0 7 -4 4 -10z
m1595 -97 c0 -18 4 -24 15 -19 13 4 14 2 5 -14 -14 -27 -30 -25 -30 3 0 13 -5
28 -12 35 -9 9 -9 12 1 12 7 0 9 5 5 12 -4 7 -3 8 4 4 7 -4 12 -19 12 -33z
m77 -25 c-3 -8 -6 -5 -6 6 -1 11 2 17 5 13 3 -3 4 -12 1 -19z m-1537 -24 c0
-2 -7 -4 -15 -4 -8 0 -15 4 -15 10 0 5 7 7 15 4 8 -4 15 -8 15 -10z m-30 -25
c0 -5 5 -7 10 -4 6 3 10 -2 10 -11 0 -16 1 -16 16 2 15 18 15 18 8 -5 -3 -13
-2 -21 3 -18 5 3 8 -9 7 -29 -4 -39 3 -44 16 -11 l9 22 0 -22 c1 -12 -3 -25
-9 -28 -15 -10 -12 -35 4 -29 10 4 14 -2 12 -20 0 -14 -7 -26 -14 -26 -16 0
-72 28 -87 44 -12 13 -18 89 -6 82 5 -3 14 1 21 9 11 13 10 14 -4 9 -12 -5
-16 0 -16 20 0 14 5 26 10 26 6 0 10 -5 10 -11z m1490 -63 c0 -3 -4 -8 -10
-11 -5 -3 -10 -1 -10 4 0 6 5 11 10 11 6 0 10 -2 10 -4z m-1874 -43 c2 -14 9
-30 16 -34 7 -4 9 -11 6 -14 -11 -11 -28 5 -28 26 0 10 -4 19 -9 19 -5 0 -7 9
-4 20 7 26 15 18 19 -17z m184 3 c0 -3 -4 -8 -10 -11 -5 -3 -10 -1 -10 4 0 6
5 11 10 11 6 0 10 -2 10 -4z m1740 -61 c0 -5 -5 -3 -10 5 -5 8 -10 20 -10 25
0 6 5 3 10 -5 5 -8 10 -19 10 -25z m-46 -14 c-2 -3 -12 3 -22 13 -16 17 -16
18 5 5 12 -7 20 -15 17 -18z m-1694 -32 c0 -5 -8 -9 -17 -10 -12 0 -13 -2 -5
-6 7 -3 19 1 28 8 13 10 16 9 21 -10 4 -16 11 -20 24 -16 14 5 17 2 13 -8 -6
-17 -44 -30 -44 -15 0 5 -5 6 -10 3 -13 -8 13 -35 34 -35 8 0 20 -9 26 -20 6
-11 17 -20 25 -20 8 0 15 -4 15 -9 0 -16 -59 -6 -73 13 -8 11 -19 16 -25 12
-6 -3 -13 -3 -15 1 -8 13 -68 7 -77 -6 -5 -9 -9 -8 -14 5 -4 11 -2 20 3 22 6
2 11 11 11 21 0 9 5 22 12 29 8 8 8 12 1 12 -14 0 -35 -25 -27 -33 3 -3 -4
-10 -15 -17 -36 -19 -25 10 19 51 49 45 90 58 90 28z m-140 -139 c0 -5 -2 -10
-4 -10 -3 0 -8 5 -11 10 -3 6 -1 10 4 10 6 0 11 -4 11 -10z m130 -16 c0 -10
-9 -14 -29 -12 -31 2 -33 24 -3 31 22 5 32 -1 32 -19z m156 -19 c16 -8 22 -15
13 -15 -8 0 -24 7 -35 15 -25 19 -14 19 22 0z m-103 -12 c-7 -2 -19 -2 -25 0
-7 3 -2 5 12 5 14 0 19 -2 13 -5z m1381 -127 c-9 -15 -19 -25 -21 -22 -3 2 3
16 13 30 9 15 19 25 21 22 3 -2 -3 -16 -13 -30z m-74 -56 c0 -5 -4 -10 -10
-10 -5 0 -10 5 -10 10 0 6 5 10 10 10 6 0 10 -4 10 -10z m62 -102 c-9 -9 -12
-7 -12 12 0 19 3 21 12 12 9 -9 9 -15 0 -24z m-103 -59 c-19 -11 -24 -3 -8 14
8 9 16 11 18 5 2 -6 -3 -14 -10 -19z m-129 -462 c0 -5 -4 -6 -9 -3 -5 3 -12
-1 -15 -10 -4 -9 -9 -15 -12 -12 -2 3 1 17 7 32 9 19 15 23 21 14 4 -7 8 -17
8 -21z"/>
<path d="M4936 7695 c-3 -8 -1 -15 4 -15 6 0 10 7 10 15 0 8 -2 15 -4 15 -2 0
-6 -7 -10 -15z"/>
<path d="M4910 7610 c0 -5 7 -10 16 -10 8 0 12 5 9 10 -3 6 -10 10 -16 10 -5
0 -9 -4 -9 -10z"/>
<path d="M5020 7594 c0 -8 5 -12 10 -9 6 3 10 10 10 16 0 5 -4 9 -10 9 -5 0
-10 -7 -10 -16z"/>
<path d="M4365 6470 c-3 -5 -2 -10 4 -10 5 0 13 5 16 10 3 6 2 10 -4 10 -5 0
-13 -4 -16 -10z"/>
<path d="M4124 6307 c0 -15 6 -23 14 -20 16 7 15 18 -2 32 -11 10 -14 7 -12
-12z"/>
<path d="M4841 8094 c0 -11 3 -14 6 -6 3 7 2 16 -1 19 -3 4 -6 -2 -5 -13z"/>
<path d="M5475 8100 c-3 -5 -1 -10 4 -10 6 0 11 5 11 10 0 6 -2 10 -4 10 -3 0
-8 -4 -11 -10z"/>
<path d="M4487 7973 c-4 -3 -7 -11 -7 -17 0 -6 5 -5 12 2 6 6 9 14 7 17 -3 3
-9 2 -12 -2z"/>
<path d="M4340 7876 c0 -8 -6 -17 -12 -19 -8 -3 -6 -6 5 -6 9 -1 17 1 17 3 0
2 3 11 6 20 3 9 1 16 -5 16 -6 0 -11 -6 -11 -14z"/>
<path d="M4223 7788 c0 -8 9 -14 19 -14 21 0 18 20 -4 24 -8 2 -15 -3 -15 -10z"/>
<path d="M4168 7781 c-10 -3 -14 -11 -10 -18 5 -7 13 -9 21 -4 19 12 10 30
-11 22z"/>
<path d="M4191 7753 c-18 -19 -10 -25 12 -8 10 7 15 15 10 18 -4 3 -14 -2 -22
-10z"/>
<path d="M4085 7684 c-9 -9 -14 -22 -11 -29 3 -8 -2 -11 -13 -8 -10 2 -24 -4
-32 -14 -13 -17 -13 -17 4 -4 14 11 20 12 30 2 7 -7 8 -12 2 -11 -21 4 -29 -1
-16 -9 12 -7 10 -14 -8 -36 -23 -30 -27 -50 -11 -60 5 -3 17 10 27 29 9 20 21
36 26 36 5 0 7 7 3 15 -4 10 1 15 15 15 11 0 18 -4 14 -9 -3 -5 -1 -12 5 -16
5 -3 10 1 10 9 0 8 7 19 16 24 15 8 15 10 0 15 -8 3 -18 2 -21 -3 -4 -6 -12
-10 -18 -10 -7 1 -2 9 11 19 28 24 28 31 1 24 -18 -5 -20 -3 -14 16 8 25 2 27
-20 5z"/>
<path d="M4603 7568 c-12 -15 -13 -48 -2 -48 3 0 9 8 13 18 3 9 9 23 12 30 3
6 1 12 -4 12 -5 0 -14 -6 -19 -12z"/>
<path d="M4403 7559 c-13 -5 -23 -10 -23 -13 0 -13 59 -64 80 -70 14 -3 19 -3
13 0 -7 3 -13 14 -13 25 0 13 -5 17 -16 12 -13 -5 -15 -2 -10 13 8 28 -5 43
-31 33z"/>
<path d="M3955 7522 c-3 -11 -17 -24 -30 -30 -14 -6 -25 -17 -25 -23 0 -8 7
-6 18 4 10 10 24 17 30 17 13 0 27 -44 18 -58 -3 -5 1 -9 9 -9 8 0 15 9 15 19
0 10 7 21 15 24 19 8 19 48 0 64 -13 11 -14 10 -10 -2 3 -8 -2 -21 -11 -29
-16 -13 -17 -11 -12 14 6 30 -7 37 -17 9z"/>
<path d="M4530 7514 c0 -8 5 -12 10 -9 6 3 10 10 10 16 0 5 -4 9 -10 9 -5 0
-10 -7 -10 -16z"/>
<path d="M4690 7490 c-13 -8 -13 -10 2 -10 9 0 20 5 23 10 8 13 -5 13 -25 0z"/>
<path d="M3940 7454 c0 -8 5 -12 10 -9 6 3 10 10 10 16 0 5 -4 9 -10 9 -5 0
-10 -7 -10 -16z"/>
<path d="M4517 7447 c-3 -8 1 -14 9 -14 16 0 19 13 5 21 -5 3 -11 0 -14 -7z"/>
<path d="M3920 7420 c0 -5 5 -10 10 -10 6 0 10 5 10 10 0 6 -4 10 -10 10 -5 0
-10 -4 -10 -10z"/>
<path d="M4345 7400 c3 -5 10 -10 16 -10 5 0 9 5 9 10 0 6 -7 10 -16 10 -8 0
-12 -4 -9 -10z"/>
<path d="M4307 7385 c-4 -8 -2 -17 2 -20 5 -2 11 4 14 15 6 23 -8 27 -16 5z"/>
<path d="M4601 7392 c-15 -5 -14 -22 2 -22 7 0 21 6 31 13 16 12 16 13 -2 13
-11 0 -25 -2 -31 -4z"/>
<path d="M4192 7378 c-7 -7 -12 -16 -12 -22 0 -5 3 -6 7 -3 3 4 12 -1 19 -11
12 -15 13 -14 14 10 0 31 -12 42 -28 26z"/>
<path d="M4334 7362 c-11 -10 -19 -23 -16 -30 3 -10 11 -7 28 9 39 36 28 55
-12 21z"/>
<path d="M4740 7365 c0 -8 5 -15 10 -15 6 0 10 7 10 15 0 8 -4 15 -10 15 -5 0
-10 -7 -10 -15z"/>
<path d="M4270 7349 c0 -5 5 -7 10 -4 6 3 10 8 10 11 0 2 -4 4 -10 4 -5 0 -10
-5 -10 -11z"/>
<path d="M3938 7328 c-3 -7 3 -21 12 -31 15 -15 18 -16 23 -3 4 9 -1 22 -9 31
-19 18 -21 18 -26 3z"/>
<path d="M3912 7288 c-18 -18 -15 -27 8 -21 11 3 20 12 20 19 0 17 -12 18 -28
2z"/>
<path d="M3920 7225 c7 -8 17 -12 22 -9 6 4 5 10 -3 15 -22 14 -33 10 -19 -6z"/>
<path d="M6386 7121 c-4 -5 -2 -12 3 -15 5 -4 12 -2 15 3 4 5 2 12 -3 15 -5 4
-12 2 -15 -3z"/>
<path d="M6135 7100 c3 -5 8 -10 11 -10 2 0 4 5 4 10 0 6 -5 10 -11 10 -5 0
-7 -4 -4 -10z"/>
<path d="M6407 7084 c-9 -10 2 -24 19 -24 8 0 14 7 14 15 0 15 -21 21 -33 9z"/>
<path d="M3935 7050 c-3 -5 -1 -10 4 -10 6 0 11 5 11 10 0 6 -2 10 -4 10 -3 0
-8 -4 -11 -10z"/>
<path d="M6386 7045 c4 -8 8 -15 10 -15 2 0 4 7 4 15 0 8 -4 15 -10 15 -5 0
-7 -7 -4 -15z"/>
<path d="M4160 7009 c0 -5 9 -9 20 -9 11 0 20 2 20 4 0 2 -9 6 -20 9 -11 3
-20 1 -20 -4z"/>
<path d="M3924 6998 c-5 -7 -3 -8 6 -3 10 6 12 4 7 -8 -3 -10 -2 -18 3 -18 15
-2 23 -4 48 -13 17 -6 21 -12 16 -32 -6 -24 9 -34 21 -14 3 6 1 10 -6 10 -10
0 -10 3 -1 12 18 18 15 49 -3 42 -11 -5 -14 -1 -9 12 4 14 3 15 -4 6 -8 -12
-15 -11 -40 2 -23 12 -33 13 -38 4z"/>
<path d="M3830 6960 c0 -19 3 -21 12 -12 9 9 9 15 0 24 -9 9 -12 7 -12 -12z"/>
<path d="M4137 6953 c-4 -3 -7 -11 -7 -17 0 -6 5 -5 12 2 6 6 9 14 7 17 -3 3
-9 2 -12 -2z"/>
<path d="M3877 6937 c-11 -29 -9 -43 4 -30 6 6 9 19 7 29 -3 18 -4 18 -11 1z"/>
<path d="M6335 6940 c-3 -5 -1 -10 4 -10 6 0 11 5 11 10 0 6 -2 10 -4 10 -3 0
-8 -4 -11 -10z"/>
<path d="M6360 6910 c0 -11 -4 -20 -10 -20 -18 0 -10 -27 14 -45 22 -17 26
-55 5 -55 -5 0 -6 7 -3 15 4 9 0 15 -10 15 -9 0 -16 5 -16 12 0 9 -3 9 -11 1
-14 -14 -3 -63 14 -63 7 0 18 -9 25 -20 7 -11 22 -20 33 -20 12 0 23 -8 26
-20 5 -18 23 -19 23 -2 -1 18 -32 45 -52 47 -13 1 -21 6 -19 11 2 5 12 8 23 6
10 -2 18 3 19 10 0 7 4 3 9 -9 5 -13 15 -23 22 -23 10 0 10 2 -1 9 -10 6 -10
10 -1 16 8 5 6 11 -7 21 -10 7 -13 14 -6 14 7 0 10 6 7 13 -3 8 2 20 11 27 13
11 16 11 13 0 -2 -8 6 -15 17 -17 11 -1 14 0 8 3 -7 3 -13 11 -13 19 0 7 -7
18 -15 25 -8 7 -12 16 -9 21 5 9 -16 13 -43 10 -7 -1 -22 3 -33 9 -17 9 -20 8
-20 -10z m50 -32 c0 -13 -23 -5 -28 10 -2 7 2 10 12 6 9 -3 16 -11 16 -16z
m40 -12 c0 -3 -4 -8 -10 -11 -5 -3 -10 -1 -10 4 0 6 5 11 10 11 6 0 10 -2 10
-4z"/>
<path d="M3992 6883 c-10 -4 -9 -8 5 -19 23 -17 39 -18 24 -1 -6 8 -8 17 -4
20 7 8 -6 8 -25 0z"/>
<path d="M3977 6845 c-4 -8 -2 -17 3 -20 6 -4 10 3 10 14 0 25 -6 27 -13 6z"/>
<path d="M4155 6830 c-3 -5 1 -10 10 -10 9 0 13 5 10 10 -3 6 -8 10 -10 10 -2
0 -7 -4 -10 -10z"/>
<path d="M3973 6794 c-17 -18 -16 -21 5 -26 13 -4 18 0 17 13 -2 26 -8 29 -22
13z"/>
<path d="M3974 6700 c-4 -22 -12 -40 -18 -40 -6 0 -4 -5 4 -10 10 -6 11 -10 3
-10 -7 0 -13 -12 -13 -26 0 -19 4 -25 15 -21 8 4 17 2 20 -3 22 -36 34 25 15
74 -7 19 -6 29 6 41 17 16 11 35 -11 35 -9 0 -17 -15 -21 -40z"/>
<path d="M6387 6689 c7 -7 15 -10 18 -7 3 3 -2 9 -12 12 -14 6 -15 5 -6 -5z"/>
<path d="M6304 6615 c7 -24 -2 -39 -29 -49 -13 -5 -15 -10 -8 -13 13 -5 83 33
83 44 0 4 -3 4 -6 0 -4 -3 -15 4 -26 16 -18 21 -19 21 -14 2z"/>
<path d="M4056 6551 c-4 -7 -5 -15 -2 -18 9 -9 19 4 14 18 -4 11 -6 11 -12 0z"/>
<path d="M4145 6550 c3 -5 8 -10 11 -10 2 0 4 5 4 10 0 6 -5 10 -11 10 -5 0
-7 -4 -4 -10z"/>
<path d="M6330 6549 c0 -5 5 -7 10 -4 6 3 10 8 10 11 0 2 -4 4 -10 4 -5 0 -10
-5 -10 -11z"/>
<path d="M6270 6532 c0 -5 7 -13 16 -16 10 -4 14 -1 12 6 -5 15 -28 23 -28 10z"/>
<path d="M6243 6505 c7 -14 15 -25 19 -25 4 0 2 11 -4 25 -6 14 -15 25 -19 25
-4 0 -2 -11 4 -25z"/>
<path d="M6208 6491 c-23 -23 -23 -31 2 -31 22 0 38 26 24 40 -5 4 -17 0 -26
-9z"/>
<path d="M4053 6485 c-9 -10 -6 -15 13 -25 13 -8 27 -10 31 -7 3 4 1 7 -5 7
-7 0 -12 6 -12 14 0 21 -13 26 -27 11z"/>
<path d="M6164 6446 c-5 -6 -9 -18 -9 -26 0 -8 -8 -15 -17 -15 -9 0 -20 -4
-24 -8 -4 -4 -2 -7 5 -7 7 0 10 -3 8 -7 -3 -5 9 -8 26 -7 17 0 33 7 35 14 3 8
0 10 -8 5 -8 -5 -11 -3 -8 6 3 8 15 13 26 11 16 -2 22 2 22 16 0 22 -40 35
-56 18z"/>
<path d="M5946 6435 c4 -8 11 -15 16 -15 6 0 5 6 -2 15 -7 8 -14 15 -16 15 -2
0 -1 -7 2 -15z"/>
<path d="M6117 6439 c-10 -6 -24 -8 -31 -6 -7 3 -19 1 -27 -4 -11 -7 -10 -9 5
-9 20 0 20 0 0 -16 -18 -15 -18 -15 4 -10 21 4 23 2 17 -21 -4 -18 -2 -24 7
-21 8 3 12 17 10 35 -3 24 1 33 17 38 12 3 21 11 21 16 0 11 -1 11 -23 -2z"/>
<path d="M6125 6343 c2 -10 4 -22 4 -26 1 -5 7 -5 14 -1 6 4 3 -2 -7 -14 -11
-12 -21 -22 -24 -22 -3 0 -2 3 1 6 9 9 -11 44 -25 44 -7 0 -7 -4 1 -14 22 -26
-8 -56 -59 -60 -24 -2 -17 -19 8 -21 13 -1 22 4 22 12 0 9 9 13 24 11 27 -3
76 36 76 61 0 11 4 10 16 -5 14 -18 15 -18 4 4 -6 13 -16 20 -22 16 -7 -5 -9
-1 -5 9 5 12 1 17 -12 17 -13 0 -18 -6 -16 -17z"/>
<path d="M5995 6269 c-4 -6 -5 -12 -2 -15 2 -3 7 2 10 11 7 17 1 20 -8 4z"/>
<path d="M5916 6252 c-3 -5 1 -15 9 -22 16 -14 20 -3 6 19 -5 8 -11 9 -15 3z"/>
<path d="M4585 6220 c-3 -5 -1 -10 4 -10 6 0 11 5 11 10 0 6 -2 10 -4 10 -3 0
-8 -4 -11 -10z"/>
<path d="M6265 6220 c-3 -5 -1 -10 4 -10 6 0 11 5 11 10 0 6 -2 10 -4 10 -3 0
-8 -4 -11 -10z"/>
<path d="M6045 6210 c4 -6 11 -8 16 -5 14 9 11 15 -7 15 -8 0 -12 -5 -9 -10z"/>
<path d="M5818 6186 c-15 -12 -25 -26 -21 -29 3 -4 13 2 21 14 8 11 20 18 28
15 8 -3 11 0 7 10 -6 17 -3 18 -35 -10z"/>
<path d="M6113 6196 c4 -14 47 -21 47 -8 0 5 -11 12 -25 15 -16 3 -24 0 -22
-7z"/>
<path d="M4580 6179 c0 -5 5 -7 10 -4 6 3 10 8 10 11 0 2 -4 4 -10 4 -5 0 -10
-5 -10 -11z"/>
<path d="M4578 6153 c7 -3 16 -2 19 1 4 3 -2 6 -13 5 -11 0 -14 -3 -6 -6z"/>
<path d="M5551 6134 c0 -11 3 -14 6 -6 3 7 2 16 -1 19 -3 4 -6 -2 -5 -13z"/>
<path d="M5918 6133 c7 -3 16 -2 19 1 4 3 -2 6 -13 5 -11 0 -14 -3 -6 -6z"/>
<path d="M5883 6113 c-7 -2 -13 -9 -13 -14 0 -6 5 -7 10 -4 15 9 12 -7 -5 -29
-8 -11 -15 -25 -15 -30 1 -6 8 2 16 17 10 18 21 27 30 23 20 -7 31 23 13 35
-15 10 -18 10 -36 2z"/>
<path d="M4510 6081 c0 -5 9 -7 20 -4 11 3 20 7 20 9 0 2 -9 4 -20 4 -11 0
-20 -4 -20 -9z"/>
<path d="M5926 6045 c-9 -34 -4 -40 11 -16 6 10 8 23 3 30 -5 9 -10 4 -14 -14z"/>
<path d="M5990 6066 c0 -2 7 -7 16 -10 8 -3 12 -2 9 4 -6 10 -25 14 -25 6z"/>
<path d="M6095 6040 c3 -6 3 -10 -2 -11 -27 -2 -113 -34 -113 -41 0 -2 20 -3
44 -3 25 0 40 3 33 7 -11 7 13 13 36 9 5 -1 5 4 1 10 -5 8 -2 10 8 7 8 -4 15
0 15 8 0 7 -7 16 -14 18 -8 3 -11 1 -8 -4z"/>
<path d="M5460 6020 c0 -5 5 -10 10 -10 6 0 10 5 10 10 0 6 -4 10 -10 10 -5 0
-10 -4 -10 -10z"/>
<path d="M5951 6004 c0 -11 3 -14 6 -6 3 7 2 16 -1 19 -3 4 -6 -2 -5 -13z"/>
<path d="M5716 5985 c-9 -26 -7 -32 5 -12 6 10 9 21 6 23 -2 3 -7 -2 -11 -11z"/>
<path d="M5850 5971 c0 -6 4 -13 10 -16 6 -3 7 1 4 9 -7 18 -14 21 -14 7z"/>
<path d="M5910 5965 c-11 -13 -10 -14 4 -9 9 3 16 10 16 15 0 13 -6 11 -20 -6z"/>
<path d="M5740 5960 c0 -5 -6 -10 -14 -10 -7 0 -19 -7 -26 -15 -11 -14 -10
-14 14 -5 25 9 27 8 21 -12 -3 -13 -3 -18 2 -13 4 6 14 10 21 11 38 3 43 5 37
15 -4 6 -13 8 -21 5 -13 -5 -18 6 -15 27 0 4 -3 7 -9 7 -5 0 -10 -4 -10 -10z"/>
<path d="M6000 5960 c0 -5 5 -10 10 -10 6 0 10 5 10 10 0 6 -4 10 -10 10 -5 0
-10 -4 -10 -10z"/>
<path d="M6030 5940 c0 -13 18 -22 24 -11 3 5 -1 11 -9 15 -8 3 -15 1 -15 -4z"/>
<path d="M6010 5926 c0 -9 5 -16 10 -16 6 0 10 4 10 9 0 6 -4 13 -10 16 -5 3
-10 -1 -10 -9z"/>
<path d="M5720 5875 c0 -8 2 -15 4 -15 2 0 6 7 10 15 3 8 1 15 -4 15 -6 0 -10
-7 -10 -15z"/>
<path d="M5655 5858 c-4 -15 -16 -29 -28 -32 -12 -3 -18 -8 -15 -12 4 -3 19
-3 34 0 14 4 24 10 20 13 -3 3 -2 11 4 17 5 7 5 18 0 26 -7 11 -10 8 -15 -12z"/>
<path d="M5600 5750 c0 -16 2 -30 4 -30 2 0 6 14 8 30 3 17 1 30 -4 30 -4 0
-8 -13 -8 -30z"/>
<path d="M5626 5733 c-6 -14 -5 -15 5 -6 7 7 10 15 7 18 -3 3 -9 -2 -12 -12z"/>
<path d="M5901 5721 c-7 -5 -9 -11 -5 -14 5 -3 15 1 22 9 14 16 5 18 -17 5z"/>
<path d="M5570 5618 c-21 -34 -27 -78 -11 -78 5 0 12 16 15 35 4 20 11 33 17
30 5 -4 9 5 9 19 0 34 -6 33 -30 -6z"/>
<path d="M5627 5616 c-11 -8 -14 -17 -8 -20 5 -4 15 3 21 14 13 23 11 24 -13
6z"/>
<path d="M5590 5574 c0 -8 5 -12 10 -9 6 4 8 11 5 16 -9 14 -15 11 -15 -7z"/>
<path d="M5835 5580 c-3 -5 -1 -10 4 -10 6 0 11 5 11 10 0 6 -2 10 -4 10 -3 0
-8 -4 -11 -10z"/>
<path d="M5810 5525 c0 -8 2 -15 4 -15 2 0 6 7 10 15 3 8 1 15 -4 15 -6 0 -10
-7 -10 -15z"/>
<path d="M5880 5495 c0 -8 9 -15 20 -15 24 0 27 15 4 24 -22 9 -24 8 -24 -9z"/>
<path d="M5416 5471 c-4 -7 -5 -15 -2 -18 9 -9 19 4 14 18 -4 11 -6 11 -12 0z"/>
<path d="M5230 5433 c0 -16 -6 -40 -14 -54 -9 -17 -10 -32 -4 -43 7 -12 5 -16
-6 -16 -21 0 -32 -46 -15 -66 7 -8 8 -14 2 -12 -15 4 -64 -70 -67 -101 -3 -40
-17 -81 -28 -81 -5 0 -7 -18 -5 -40 2 -24 -1 -47 -9 -58 -7 -9 -14 -30 -14
-47 0 -37 -34 -95 -55 -95 -9 0 -14 -4 -11 -8 3 -5 1 -37 -5 -73 -5 -35 -12
-82 -15 -104 -7 -46 -41 -142 -53 -150 -13 -8 -2 -248 12 -258 8 -6 9 -10 1
-13 -6 -3 -9 -16 -6 -29 2 -15 0 -25 -7 -25 -6 0 -12 -12 -12 -27 -2 -24 -2
-25 -6 -5 -9 47 -31 16 -31 -45 -1 -15 5 -21 19 -20 10 1 19 7 19 15 0 7 4 11
9 8 5 -4 12 0 14 6 3 7 6 -4 6 -25 1 -21 6 -48 12 -60 8 -17 5 -16 -15 6 -18
20 -26 23 -26 13 0 -9 3 -16 8 -16 4 -1 23 -23 42 -50 19 -28 41 -50 48 -50 7
0 11 -3 9 -7 -3 -5 4 -17 14 -27 13 -14 19 -15 19 -6 0 11 3 11 12 2 15 -15
62 -16 53 -2 -4 6 -10 8 -14 6 -4 -3 -8 1 -8 8 0 10 8 12 29 6 17 -6 30 -5 34
2 4 6 2 8 -3 5 -6 -4 -13 0 -16 8 -6 15 17 11 41 -8 9 -7 16 -7 20 -1 5 7 15
6 29 -1 13 -7 20 -15 16 -18 -3 -4 3 -7 15 -7 12 0 22 4 22 9 0 10 -29 22 -43
18 -10 -2 -31 32 -24 39 2 3 11 -1 19 -8 7 -7 19 -14 26 -15 6 -2 21 -12 31
-22 17 -17 18 -21 5 -32 -12 -10 -12 -14 -2 -20 22 -15 51 -11 44 6 -3 9 0 15
9 15 8 0 15 -7 15 -15 0 -14 12 -19 33 -16 4 0 7 -4 7 -10 0 -6 12 -8 29 -6
20 3 31 0 35 -9 7 -19 67 -54 92 -54 12 0 25 7 28 16 3 9 11 12 18 8 9 -6 9
-3 -1 9 -11 14 -11 18 2 23 9 3 21 3 27 -1 5 -3 10 -1 10 4 0 6 6 11 14 11 18
0 12 80 -9 121 -9 16 -13 29 -11 29 3 0 -8 14 -24 32 -22 24 -28 39 -25 60 3
16 1 28 -5 28 -17 0 -11 42 8 57 16 14 16 14 -2 9 -15 -5 -17 -4 -7 8 9 11 8
15 -3 19 -10 4 -14 16 -11 37 4 35 -12 40 -25 8 -5 -13 -9 -17 -9 -10 -1 6 -7
12 -15 12 -8 0 -17 -6 -19 -12 -3 -7 -6 2 -6 21 -1 24 -5 32 -15 28 -8 -3 -22
1 -33 9 -10 9 -13 13 -7 10 6 -3 16 6 23 20 9 20 9 25 -1 21 -7 -2 -12 -10
-11 -16 4 -13 -21 -14 -65 -2 -17 5 -32 6 -32 2 0 -5 -11 -6 -25 -3 -14 2 -25
9 -25 14 0 5 -6 6 -12 2 -9 -5 -10 -4 -3 3 15 16 59 28 51 14 -5 -7 -1 -9 9
-5 23 9 38 51 25 72 -6 11 -9 12 -10 4 0 -7 -5 -10 -10 -7 -6 4 -10 3 -9 -2 3
-19 -2 -31 -17 -37 -8 -3 -13 -2 -10 3 13 20 -26 19 -47 -2 -20 -20 -77 -31
-77 -14 0 4 -7 7 -16 7 -9 0 -14 6 -11 13 2 6 16 11 30 11 28 -1 35 14 16 33
-8 8 -7 21 2 48 11 30 11 37 0 44 -11 7 -11 10 0 15 11 5 11 7 2 12 -18 8 -16
37 2 31 18 -7 51 21 60 51 7 23 -1 27 -24 13 -10 -6 -27 -5 -49 5 -19 7 -39
11 -46 8 -6 -3 -2 3 9 13 20 17 20 19 3 36 -19 18 -25 43 -9 32 15 -9 24 15
11 30 -9 11 -7 19 9 36 12 13 21 28 21 33 0 6 7 23 14 39 14 25 13 27 -5 27
-11 0 -17 -4 -14 -10 3 -5 2 -10 -4 -10 -17 0 -5 55 13 58 19 4 19 7 6 31 -7
13 -17 17 -37 13 -23 -4 -26 -2 -16 8 7 7 23 14 35 16 13 1 26 3 31 3 4 1 7 6
7 12 0 7 8 17 17 24 16 12 16 15 -7 35 l-25 21 24 -12 c21 -10 23 -9 18 5 -4
10 2 36 13 59 11 22 20 56 20 74 0 18 4 33 10 33 5 0 14 17 19 37 11 38 6 57
-8 35 -5 -9 -13 -6 -30 12 -14 15 -19 26 -12 31 6 3 11 14 11 23 0 12 -3 13
-12 4 -7 -7 -21 -12 -31 -12 -14 0 -17 4 -12 18 15 34 17 62 6 62 -6 0 -11
-12 -11 -27z m-110 -641 c0 -13 -12 -22 -22 -16 -10 6 -1 24 13 24 5 0 9 -4 9
-8z m-30 -46 c0 -3 -4 -8 -10 -11 -5 -3 -10 -1 -10 4 0 6 5 11 10 11 6 0 10
-2 10 -4z m35 -26 c3 -6 -1 -7 -9 -4 -18 7 -21 14 -7 14 6 0 13 -4 16 -10z
m15 -42 c0 -5 -4 -7 -9 -4 -5 4 -12 0 -14 -6 -4 -10 -8 -10 -16 2 -5 8 -8 17
-5 21 6 10 44 -1 44 -13z m10 -22 c0 -3 -4 -8 -10 -11 -5 -3 -10 -1 -10 4 0 6
5 11 10 11 6 0 10 -2 10 -4z m52 -39 c-8 -10 -2 -12 31 -10 35 3 38 2 19 -7
-13 -6 -20 -15 -16 -21 5 -8 1 -8 -14 0 -31 17 -41 13 -36 -11 l5 -23 -12 23
c-10 18 -9 25 6 42 20 22 34 28 17 7z m-17 -87 c3 -5 1 -10 -4 -10 -6 0 -11 5
-11 10 0 6 2 10 4 10 3 0 8 -4 11 -10z m-80 -40 c-3 -5 -1 -10 6 -10 7 0 10
-3 6 -6 -9 -9 -28 6 -22 17 4 5 8 9 11 9 3 0 2 -4 -1 -10z m95 -180 c0 -5 -7
-7 -15 -4 -8 4 -15 8 -15 10 0 2 7 4 15 4 8 0 15 -4 15 -10z"/>
<path d="M5760 5430 c0 -5 5 -10 11 -10 5 0 7 5 4 10 -3 6 -8 10 -11 10 -2 0
-4 -4 -4 -10z"/>
<path d="M5530 5422 c0 -7 -3 -11 -7 -11 -5 1 -14 1 -21 0 -17 -1 -5 -21 13
-21 13 0 29 29 20 38 -3 3 -5 0 -5 -6z"/>
<path d="M5550 5375 c-11 -13 -10 -14 4 -9 9 3 16 10 16 15 0 13 -6 11 -20 -6z"/>
<path d="M5706 5355 c4 -8 10 -15 15 -15 4 0 6 7 3 15 -4 8 -10 15 -15 15 -4
0 -6 -7 -3 -15z"/>
<path d="M5663 5316 c17 -17 18 -40 4 -63 -10 -16 5 -17 20 -2 16 16 0 73 -22
78 -17 3 -17 2 -2 -13z"/>
<path d="M5470 5300 c-8 -5 -11 -12 -8 -16 4 -3 14 1 23 10 18 17 9 21 -15 6z"/>
<path d="M5587 5257 c-3 -10 15 -37 26 -37 9 0 3 27 -9 38 -10 9 -13 9 -17 -1z"/>
<path d="M5410 5220 c0 -5 5 -10 11 -10 5 0 7 5 4 10 -3 6 -8 10 -11 10 -2 0
-4 -4 -4 -10z"/>
<path d="M5390 5204 c0 -11 -9 -25 -20 -32 -11 -7 -20 -18 -19 -25 0 -9 2 -9
5 0 3 7 12 9 20 6 8 -3 14 0 14 7 0 7 7 18 16 24 14 11 14 13 0 25 -14 12 -16
11 -16 -5z"/>
<path d="M5656 5171 c-5 -7 -3 -18 3 -24 14 -14 20 -6 11 17 -5 15 -9 16 -14
7z"/>
<path d="M5745 5150 c-3 -5 -1 -10 4 -10 6 0 11 5 11 10 0 6 -2 10 -4 10 -3 0
-8 -4 -11 -10z"/>
<path d="M5643 5114 c-3 -8 -1 -20 6 -27 15 -15 14 -27 -3 -27 -8 0 -18 -4
-21 -10 -3 -5 3 -10 14 -10 11 0 22 9 26 20 3 11 12 19 18 17 22 -4 12 36 -11
44 -17 6 -24 5 -29 -7z"/>
<path d="M5604 5104 c3 -9 6 -19 6 -22 0 -9 20 21 20 31 0 4 -7 7 -16 7 -11 0
-14 -5 -10 -16z"/>
<path d="M5580 5061 c0 -6 4 -13 10 -16 6 -3 7 1 4 9 -7 18 -14 21 -14 7z"/>
<path d="M5712 5058 c3 -7 13 -15 23 -17 17 -3 17 -2 3 13 -20 19 -31 21 -26
4z"/>
<path d="M5342 5009 c-15 -24 -15 -26 4 -33 8 -3 22 1 30 9 9 8 12 15 7 15 -5
0 -14 -5 -21 -12 -7 -7 -12 -8 -12 -2 0 6 5 15 11 21 6 6 7 13 2 16 -5 3 -14
-3 -21 -14z"/>
<path d="M5670 5019 c0 -5 5 -7 10 -4 6 3 10 8 10 11 0 2 -4 4 -10 4 -5 0 -10
-5 -10 -11z"/>
<path d="M5509 4973 c-13 -17 -13 -17 6 -3 11 8 22 16 24 17 2 2 0 3 -6 3 -6
0 -17 -8 -24 -17z"/>
<path d="M5565 4965 c-3 -8 -7 -22 -10 -30 -6 -20 11 -19 19 1 3 8 9 13 13 11
5 -3 15 2 23 11 13 14 12 15 -3 9 -9 -3 -17 -2 -17 3 0 16 -20 12 -25 -5z"/>
<path d="M5618 4943 c6 -2 18 -2 25 0 6 3 1 5 -13 5 -14 0 -19 -2 -12 -5z"/>
<path d="M5546 4893 c-3 -8 -1 -11 4 -8 6 3 10 -1 10 -10 0 -12 -5 -15 -17
-10 -44 18 -53 18 -47 -1 5 -18 5 -18 -9 -1 -8 9 -19 17 -26 17 -18 0 -8 -24
14 -34 19 -9 19 -10 -2 -13 -26 -5 -27 -7 -13 -33 12 -23 66 -36 85 -20 9 7
12 22 9 39 -5 22 0 32 20 48 32 26 32 29 2 35 -16 3 -27 0 -30 -9z"/>
<path d="M5436 4782 c-4 -7 -13 -9 -19 -5 -7 4 -6 -1 2 -11 15 -18 37 -8 29
15 -3 10 -6 10 -12 1z"/>
<path d="M5329 4723 c-8 -10 -20 -29 -27 -43 l-13 -25 21 25 c11 14 25 31 31
38 6 7 9 15 7 18 -3 2 -11 -4 -19 -13z"/>
<path d="M5273 4711 c1 -12 7 -21 14 -21 17 0 16 15 -1 30 -12 9 -15 8 -13 -9z"/>
<path d="M5440 4680 c0 -5 5 -10 11 -10 5 0 7 5 4 10 -3 6 -8 10 -11 10 -2 0
-4 -4 -4 -10z"/>
<path d="M5466 4647 c3 -10 9 -15 12 -12 3 3 0 11 -7 18 -10 9 -11 8 -5 -6z"/>
<path d="M5475 4611 c-3 -5 -1 -12 5 -16 5 -3 10 1 10 9 0 18 -6 21 -15 7z"/>
<path d="M5425 4580 c-16 -7 -17 -9 -3 -9 9 -1 20 4 23 9 7 11 7 11 -20 0z"/>
<path d="M5247 4453 c-10 -9 -9 -33 1 -33 4 0 8 9 8 20 0 23 0 22 -9 13z"/>
<path d="M4883 4433 c-7 -3 -13 -12 -13 -21 0 -13 -2 -14 -9 -3 -7 10 -10 10
-16 1 -8 -14 14 -32 28 -23 5 3 7 0 5 -8 -3 -8 -12 -13 -22 -11 -17 3 -23 -28
-8 -42 4 -4 7 -13 7 -19 0 -7 8 -12 17 -12 10 0 23 -6 30 -14 10 -10 10 -12 1
-7 -7 4 -13 2 -13 -4 0 -7 6 -10 13 -7 8 3 11 23 8 66 -4 79 -13 109 -28 104z"/>
<path d="M5412 4420 c-10 -17 -10 -23 3 -36 13 -14 15 -12 15 16 0 25 3 31 16
26 8 -3 12 -2 9 4 -10 16 -29 11 -43 -10z"/>
<path d="M5243 4378 c-2 -16 1 -17 13 -8 17 15 17 17 1 23 -8 3 -14 -3 -14
-15z"/>
<path d="M5550 4370 c0 -5 5 -10 11 -10 5 0 7 5 4 10 -3 6 -8 10 -11 10 -2 0
-4 -4 -4 -10z"/>
<path d="M5591 4314 c0 -11 3 -14 6 -6 3 7 2 16 -1 19 -3 4 -6 -2 -5 -13z"/>
<path d="M4959 3392 c-1 -4 -1 -10 -1 -13 1 -3 -17 -4 -38 -2 -26 2 -40 -2
-44 -12 -3 -8 -2 -15 3 -15 5 0 11 -12 15 -27 3 -16 8 -38 12 -50 5 -19 2 -23
-14 -23 -11 0 -23 6 -25 13 -4 9 -8 8 -16 -3 -6 -8 -11 -11 -11 -6 0 4 -12 1
-26 -9 -14 -9 -34 -15 -44 -12 -13 3 -16 0 -13 -14 6 -23 0 -24 -21 -3 -15 14
-17 14 -23 -2 -3 -10 1 -30 10 -46 18 -31 12 -38 -10 -10 -11 13 -13 13 -10 2
2 -8 12 -20 23 -25 46 -24 153 -153 138 -168 -3 -2 2 -27 11 -55 13 -40 14
-55 5 -72 -9 -16 -9 -25 -1 -29 7 -5 6 -16 -5 -35 -13 -26 -13 -32 1 -52 9
-13 13 -24 10 -24 -3 0 3 -10 15 -22 13 -14 20 -35 20 -59 0 -20 6 -39 13 -42
14 -5 36 -75 39 -124 1 -18 6 -33 10 -33 5 0 22 -15 38 -34 28 -32 90 -55 90
-34 0 5 5 6 10 3 6 -4 8 -11 5 -16 -4 -5 2 -12 12 -15 10 -3 32 -12 48 -20 17
-8 40 -15 50 -14 50 1 65 5 65 17 0 15 16 17 25 3 3 -5 1 -10 -6 -10 -23 0 2
-14 26 -16 18 -1 25 4 25 18 0 10 5 18 10 18 6 0 10 -7 10 -15 0 -21 20 -19
21 3 0 13 3 12 11 -5 12 -26 34 -32 24 -8 -3 9 6 28 23 45 31 33 43 38 34 14
-4 -12 -2 -15 8 -12 9 3 13 17 12 39 -2 30 -2 31 7 12 5 -13 16 -23 25 -23 8
0 15 -4 15 -9 0 -5 13 -8 30 -7 24 1 29 4 24 19 -3 9 -2 17 3 16 28 -5 36 2
18 15 -18 13 -18 14 9 9 27 -6 28 -4 22 25 -4 16 -3 33 3 36 14 9 -9 63 -43
103 -17 18 -32 29 -36 23 -3 -5 -11 -1 -17 10 -10 14 -9 19 2 24 10 3 12 0 8
-11 -4 -11 -3 -14 6 -9 6 4 18 3 26 -4 11 -9 13 -3 11 37 -2 26 -7 57 -11 67
-6 14 -5 17 4 11 9 -5 12 -2 9 11 -2 11 11 39 30 64 24 33 32 53 29 73 -2 15
0 30 5 33 4 3 8 17 8 32 0 20 -9 32 -31 44 -17 10 -28 22 -24 28 24 38 -159
248 -254 290 -28 13 -51 27 -51 32 0 16 -25 8 -38 -13 l-14 -21 -16 23 c-9 13
-16 27 -14 32 1 4 -9 5 -23 1 -19 -5 -25 -2 -25 11 0 15 -1 15 -16 0 -14 -14
-19 -14 -33 -2 -9 8 -22 12 -28 10 -7 -3 -13 -1 -13 4 0 4 -13 8 -30 8 -25 1
-30 -3 -30 -24 l0 -25 -16 22 c-8 12 -22 22 -30 22 -17 0 -17 -5 -2 -33 10
-20 10 -21 -5 -8 -10 7 -17 21 -17 31 0 16 -39 36 -41 22z m299 -1089 c-11
-14 -54 2 -62 24 -4 10 -1 11 13 4 10 -6 22 -7 26 -3 5 4 5 1 1 -5 -4 -8 -1
-13 7 -13 10 0 14 7 11 23 -4 20 -4 20 5 2 5 -12 5 -25 -1 -32z m92 43 c0 -11
-19 -15 -25 -6 -3 5 1 10 9 10 9 0 16 -2 16 -4z"/>
<path d="M4654 3233 c30 -55 34 -57 32 -17 -1 33 -5 40 -24 42 -23 3 -23 3 -8
-25z"/>
<path d="M5535 2340 c-4 -12 0 -26 9 -36 9 -8 16 -11 16 -5 0 5 -4 12 -9 15
-5 3 -7 15 -4 26 7 26 -4 26 -12 0z"/>
<path d="M10080 80 l0 -80 80 0 80 0 0 80 0 80 -80 0 -80 0 0 -80z"/>
</g>
</svg>
